<svg width="21" height="20" viewBox="0 0 21 20" fill="none" xmlns="http://www.w3.org/2000/svg">
<path d="M3.50004 3.66667H19.5L17.5 12.3333H5.50004M17.5 15H6.16671L2.83337 1H0.833374" stroke="black" stroke-width="1.2" stroke-linecap="round" stroke-linejoin="round"/>
<path d="M16.1667 19C16.9031 19 17.5 18.403 17.5 17.6667C17.5 16.9303 16.9031 16.3333 16.1667 16.3333C15.4303 16.3333 14.8334 16.9303 14.8334 17.6667C14.8334 18.403 15.4303 19 16.1667 19Z" stroke="black" stroke-width="1.2" stroke-linecap="round" stroke-linejoin="round"/>
<path d="M7.50005 19C8.23643 19 8.83338 18.403 8.83338 17.6667C8.83338 16.9303 8.23643 16.3333 7.50005 16.3333C6.76367 16.3333 6.16672 16.9303 6.16672 17.6667C6.16672 18.403 6.76367 19 7.50005 19Z" stroke="black" stroke-width="1.2" stroke-linecap="round" stroke-linejoin="round"/>
</svg>
